# xmcd
#
# Track frame offsets: 
#        150
#        24296
#        45562
#        71713
#        95050
#        118940
#        144702
#        169244
#        182173
#        209245
#
# Disc length: 3023 seconds
#
# Revision: 0
# Processed by: cddbd v1.5.2PL0 Copyright (c) Steve Scherf et al.
# Submitted via: ExactAudioCopy v0.99pb4
#
DISCID=9c0bcd0a
DTITLE=Radam Schwartz - Blues Citizens
DYEAR=2009
DGENRE=Blues
TTITLE0=Dem Philadelphia Organ Blues
TTITLE1=Driftin'
TTITLE2=Grieve But Be Brief
TTITLE3=Blues Citizens
TTITLE4=Misty
TTITLE5=Pay Up
TTITLE6=I Don't Stand a Ghost of a Chance
TTITLE7=Hangin' With Smooth
TTITLE8=Steal Away
TTITLE9=Eighth Wonder
EXTD=
EXTT0=
EXTT1=
EXTT2=
EXTT3=
EXTT4=
EXTT5=
EXTT6=
EXTT7=
EXTT8=
EXTT9=
PLAYORDER=
